<svg width="131" height="22" viewBox="0 0 131 22" fill="none" xmlns="http://www.w3.org/2000/svg">
<path d="M95.3514 8.09511C95.3548 8.03513 95.3897 8.00346 95.4564 8.0018C95.5181 7.99847 95.5814 7.99847 95.643 7.99847H96.2563C96.3096 7.99847 96.3629 7.99513 96.4162 7.9918C96.4496 7.98847 96.4845 7.95681 96.4879 7.92348C96.4912 7.87016 96.4962 7.8185 96.4962 7.76517V5.87052C96.4929 5.75887 96.4646 5.72888 96.3529 5.72554C96.3096 5.72388 96.2663 5.72388 96.2213 5.72388H91.4138C91.3805 5.72388 91.3455 5.72388 91.3122 5.72554C91.2772 5.72554 91.2422 5.73387 91.2122 5.73721C91.1339 5.81386 91.1172 5.91384 91.0839 6.00383C90.7922 6.80535 90.504 7.60854 90.2157 8.41006C90.0157 8.96162 89.8191 9.51319 89.6191 10.0648C89.5941 10.1297 89.5825 10.2031 89.5325 10.2564C89.5275 10.2614 89.5141 10.2631 89.5025 10.2631C89.4958 10.2631 89.4891 10.2614 89.4875 10.2597C89.4575 10.1964 89.4292 10.1314 89.4042 10.0648C88.8893 8.71167 88.376 7.35858 87.8628 6.00549C87.8378 5.93884 87.8145 5.87052 87.7845 5.80719C87.7611 5.75554 87.7211 5.72554 87.6611 5.72554H87.6328C87.5795 5.72554 87.5262 5.72388 87.4728 5.72388H82.6171C82.5004 5.72721 82.4721 5.75387 82.4704 5.86218C82.4687 5.92384 82.4688 5.98716 82.4688 6.04882V7.67519C82.4688 7.74684 82.4687 7.8185 82.4721 7.88849C82.4737 7.96514 82.5071 7.99513 82.5904 7.9968C82.662 7.99847 82.7337 7.99847 82.8037 7.99847C83.0187 7.99847 83.2319 7.99847 83.4452 8.00013C83.4802 8.00013 83.5169 8.00346 83.5502 8.0118C83.5652 8.01513 83.5835 8.03513 83.5852 8.04846C83.5919 8.12844 83.5969 8.20843 83.5969 8.28841C83.5985 9.03494 83.5985 9.78148 83.5985 10.528C83.5985 11.8261 83.5985 13.1242 83.5969 14.4223C83.5969 14.5106 83.5935 14.6006 83.5902 14.6889C83.5885 14.7206 83.5519 14.7539 83.5186 14.7556C83.4469 14.7589 83.3753 14.7622 83.3053 14.7622H82.9403C82.8403 14.7622 82.7387 14.7622 82.6387 14.7639C82.4871 14.7656 82.4721 14.7822 82.4688 14.9322V16.7735C82.4688 16.8169 82.4687 16.8619 82.4704 16.9069C82.4737 16.9902 82.5021 17.0185 82.5821 17.0218C82.6437 17.0235 82.707 17.0235 82.7687 17.0235H87.3562C87.4279 17.0235 87.4995 17.0218 87.5695 17.0185C87.6212 17.0168 87.6528 16.9852 87.6578 16.9385C87.6595 16.9019 87.6628 16.8669 87.6628 16.8319V14.9639C87.6628 14.9205 87.6611 14.8756 87.6511 14.8322C87.6461 14.8106 87.6228 14.7822 87.6045 14.7772C87.5528 14.7656 87.4978 14.7639 87.4445 14.7639C87.3279 14.7622 87.2112 14.7622 87.0946 14.7622H86.7246C86.663 14.7622 86.6013 14.7589 86.538 14.7539C86.5114 14.7522 86.473 14.7106 86.4714 14.6823C86.468 14.5923 86.4647 14.504 86.4647 14.4156V8.99995C86.4647 8.92996 86.4647 8.85831 86.468 8.78666C86.468 8.76999 86.473 8.75333 86.4797 8.73667C86.4814 8.73 86.4897 8.725 86.4964 8.72333H86.503C86.5097 8.72333 86.518 8.725 86.5197 8.72833C86.5447 8.78499 86.5697 8.84165 86.5913 8.89997C87.1946 10.4947 87.7978 12.0894 88.401 13.6858C88.4893 13.9174 88.576 14.1507 88.6643 14.3823C88.686 14.4406 88.7076 14.499 88.731 14.5573C88.7559 14.6223 88.8043 14.6539 88.8743 14.6539H90.0057C90.1924 14.6539 90.179 14.6406 90.269 14.4006C90.7656 13.0875 91.2622 11.7761 91.7587 10.463C91.957 9.93978 92.1537 9.41488 92.352 8.8933C92.3736 8.83498 92.4036 8.78166 92.4303 8.72667C92.4319 8.72333 92.4369 8.72167 92.4436 8.72167C92.4469 8.72167 92.4503 8.72333 92.4519 8.72333C92.4603 8.725 92.4719 8.73167 92.4719 8.73667C92.4769 8.80665 92.4836 8.87831 92.4836 8.94829C92.4853 10.7796 92.4853 12.6126 92.4836 14.444C92.4836 14.514 92.4819 14.5856 92.4803 14.6573C92.4786 14.6739 92.4753 14.6939 92.4669 14.7089C92.4586 14.7222 92.4453 14.7422 92.4303 14.7439C92.3886 14.7539 92.3436 14.7622 92.3003 14.7622C92.0504 14.7639 91.8021 14.7622 91.5538 14.7639C91.4905 14.7639 91.4288 14.7672 91.3671 14.7706C91.3355 14.7722 91.2955 14.8089 91.2938 14.8372C91.2905 14.8639 91.2872 14.8906 91.2872 14.9172V16.8902C91.2872 16.9169 91.2905 16.9452 91.2988 16.9702C91.3038 16.9852 91.3188 17.0018 91.3338 17.0068C91.3571 17.0168 91.3855 17.0202 91.4105 17.0218C91.4855 17.0235 91.5588 17.0235 91.6338 17.0235H96.1329C96.2213 17.0235 96.3112 17.0218 96.3996 17.0202C96.4562 17.0185 96.4912 16.9768 96.4945 16.9152C96.4945 16.8969 96.4962 16.8785 96.4962 16.8619V14.9405C96.4962 14.9056 96.4962 14.8672 96.4862 14.8356C96.4795 14.8139 96.4562 14.7872 96.4362 14.7806C96.3946 14.7689 96.3496 14.7639 96.3046 14.7639C96.0746 14.7622 95.843 14.7639 95.6114 14.7622C95.5497 14.7622 95.4881 14.7572 95.4264 14.7522C95.3947 14.7506 95.3581 14.7139 95.3564 14.6823C95.3514 14.5939 95.3481 14.5056 95.3481 14.4173C95.3464 12.3893 95.3464 10.363 95.3464 8.33507C95.3464 8.28175 95.3464 8.22842 95.3481 8.1751C95.3481 8.14844 95.3498 8.12178 95.3514 8.09511Z" fill="#F26A24"/>
<path d="M81.2361 5.72339H76.4503C76.3887 5.72339 76.3254 5.72506 76.2637 5.72839C76.2271 5.73172 76.1937 5.75005 76.1787 5.78338C76.1471 5.8567 76.1171 5.93168 76.0904 6.00667C75.6188 7.30977 75.1506 8.61287 74.679 9.91596C74.6407 10.0243 74.599 10.1326 74.5574 10.2392C74.5507 10.2542 74.5407 10.2626 74.5274 10.2626C74.5224 10.2626 74.519 10.2626 74.514 10.2609C74.499 10.2542 74.4807 10.2442 74.4757 10.2309C74.4507 10.1743 74.429 10.1159 74.4074 10.0576C74.1574 9.40106 73.9091 8.74451 73.6608 8.08963C73.3926 7.38309 73.1259 6.67655 72.8577 5.97168C72.8327 5.90502 72.8043 5.84003 72.7727 5.77671C72.761 5.75672 72.7343 5.74005 72.7094 5.73339C72.676 5.72506 72.6394 5.72505 72.6044 5.72505C70.9597 5.72339 69.315 5.72339 67.6703 5.72339C67.482 5.72339 67.4736 5.74838 67.4736 5.92169C67.4736 6.55324 67.4736 7.18479 67.4753 7.81468C67.4753 7.85967 67.4803 7.90299 67.4886 7.94632C67.492 7.96132 67.5103 7.97965 67.5236 7.98465C67.5586 7.99298 67.5936 7.99798 67.6286 7.99798H68.2418C68.3218 7.99798 68.4018 7.99798 68.4818 7.99964C68.5718 8.00298 68.5984 8.02631 68.6001 8.10629C68.6034 8.18628 68.6034 8.26626 68.6034 8.34625V14.4018C68.6034 14.4635 68.6034 14.5251 68.6018 14.5885C68.6018 14.6151 68.6001 14.6418 68.6001 14.6684C68.5968 14.7151 68.5618 14.7534 68.5184 14.7568C68.4468 14.7601 68.3768 14.7618 68.3051 14.7618C68.0919 14.7634 67.8786 14.7618 67.6653 14.7634C67.6203 14.7634 67.5753 14.7668 67.5336 14.7784C67.5136 14.7834 67.487 14.8117 67.4836 14.8317C67.477 14.9117 67.4753 14.9917 67.4753 15.0717C67.4736 15.6133 67.4736 16.1565 67.4753 16.6981C67.4753 16.9997 67.4503 17.0247 67.6536 17.0247C67.6936 17.0247 67.7419 17.023 67.8019 17.023H67.8052C68.5051 17.023 69.2033 17.0247 69.9032 17.0247C70.7147 17.0247 71.5279 17.023 72.3394 17.023H72.5277C72.6427 17.0197 72.6677 16.9964 72.671 16.883C72.6727 16.838 72.6727 16.7931 72.6727 16.7497V15.0417C72.6727 14.98 72.671 14.9184 72.6677 14.8567C72.6644 14.8084 72.6294 14.7718 72.5844 14.7701C72.5127 14.7668 72.4427 14.7634 72.3711 14.7634C72.1311 14.7618 71.8912 14.7634 71.6512 14.7618C71.6079 14.7618 71.5629 14.7534 71.5212 14.7434C71.5079 14.7418 71.4879 14.7218 71.4862 14.7084C71.4796 14.6468 71.4712 14.5851 71.4712 14.5235V8.86949C71.4712 8.82449 71.4762 8.78117 71.4812 8.73618C71.4812 8.72951 71.4879 8.72118 71.4929 8.71951C71.4996 8.71618 71.5029 8.71618 71.5079 8.71618C71.5212 8.71618 71.5279 8.72451 71.5346 8.74118C71.5529 8.7895 71.5762 8.83949 71.5946 8.88782C71.9995 9.95929 72.4061 11.0308 72.811 12.1022C73.0993 12.8671 73.3876 13.632 73.6758 14.3968C73.7008 14.4618 73.7292 14.5285 73.7592 14.5918C73.7742 14.6251 73.8058 14.6468 73.8425 14.6501C73.8875 14.6534 73.9308 14.6534 73.9758 14.6551H74.9889C75.0256 14.6551 75.0606 14.6534 75.0956 14.6518C75.1539 14.6468 75.1939 14.6168 75.2139 14.5618C75.2456 14.4785 75.2806 14.3968 75.3122 14.3135C75.9904 12.5188 76.6686 10.7242 77.3468 8.92948C77.3718 8.86449 77.3968 8.79783 77.4268 8.73451C77.4318 8.72451 77.4568 8.72285 77.4735 8.72118C77.4785 8.72118 77.4868 8.73284 77.4868 8.73784C77.4902 8.7995 77.4935 8.86282 77.4935 8.92448C77.4952 10.7641 77.4952 12.6055 77.4952 14.4451C77.4952 14.5168 77.4935 14.5868 77.4902 14.6584C77.4902 14.6751 77.4852 14.6951 77.4768 14.7101C77.4685 14.7234 77.4535 14.7418 77.4402 14.7451C77.3968 14.7551 77.3518 14.7618 77.3085 14.7618C77.0769 14.7634 76.8453 14.7618 76.6153 14.7634C76.5437 14.7634 76.472 14.7634 76.402 14.7668C76.3387 14.7701 76.3004 14.8051 76.2954 14.8617C76.2937 14.8801 76.292 14.8984 76.292 14.9151C76.292 15.5733 76.292 16.2315 76.2937 16.8897C76.2937 16.9064 76.297 16.9247 76.2987 16.943C76.302 16.9764 76.3337 17.0113 76.3637 17.0147C76.3904 17.018 76.417 17.0213 76.4437 17.023H81.1645C81.2528 17.023 81.3428 17.018 81.4311 17.0147C81.4611 17.013 81.4944 16.9764 81.4961 16.943C81.4978 16.9164 81.5011 16.8897 81.5011 16.863C81.5028 16.2232 81.5028 15.5833 81.5028 14.9434C81.5028 14.9167 81.5011 14.8901 81.4994 14.8634C81.4944 14.8034 81.4594 14.7701 81.3945 14.7668C81.3328 14.7634 81.2695 14.7634 81.2078 14.7634H80.8629C80.7729 14.7634 80.6846 14.7634 80.5946 14.7618C80.5413 14.7618 80.4879 14.7568 80.4346 14.7534C80.4046 14.7518 80.368 14.7134 80.3663 14.6818C80.363 14.5935 80.358 14.5051 80.358 14.4168C80.3563 13.402 80.358 12.3889 80.358 11.3757C80.358 10.3625 80.3563 9.34773 80.358 8.33458C80.358 8.24627 80.363 8.15795 80.3663 8.06796C80.368 8.03964 80.4096 8.00298 80.4396 8.00298C80.5113 8.00131 80.5829 7.99964 80.6529 7.99798H81.3211C81.3645 7.99798 81.4094 7.99131 81.4528 7.98298C81.4661 7.97965 81.4861 7.96132 81.4878 7.94632C81.4961 7.88466 81.5011 7.82301 81.5028 7.76135V6.00167C81.5028 5.72839 81.5178 5.72339 81.2361 5.72339Z" fill="#F26A24"/>
<path d="M113.652 9.18443V10.1176C113.652 10.1792 113.653 10.2409 113.663 10.3026C113.665 10.3226 113.692 10.3492 113.713 10.3559C113.755 10.3692 113.8 10.3759 113.843 10.3759C114.182 10.3759 114.518 10.3775 114.857 10.3742C114.988 10.3725 115.123 10.3642 115.255 10.3492C115.458 10.3259 115.656 10.2726 115.838 10.1776C116.061 10.0609 116.218 9.88264 116.295 9.64435C116.391 9.34107 116.391 9.03279 116.295 8.72785C116.225 8.50789 116.085 8.33625 115.885 8.22294C115.8 8.17461 115.708 8.13629 115.616 8.10629C115.405 8.0363 115.186 8.00131 114.962 7.99964C114.58 7.99798 114.198 7.99798 113.817 7.99964C113.782 7.99964 113.745 8.00131 113.712 8.01298C113.692 8.01964 113.667 8.0463 113.663 8.0663C113.653 8.12795 113.652 8.18961 113.652 8.25127V9.18443ZM117.706 11.1857C117.763 11.2107 117.818 11.2357 117.874 11.2591C117.988 11.3074 118.104 11.3507 118.216 11.404C118.304 11.4457 118.389 11.4957 118.473 11.5473C118.744 11.7173 118.902 11.9656 118.971 12.2755C119.009 12.4488 119.027 12.6255 119.026 12.8038C119.024 13.3287 119.022 13.8536 119.026 14.3785C119.029 14.8101 118.966 14.7584 119.407 14.7618C119.549 14.7634 119.692 14.7618 119.834 14.7634C119.879 14.7634 119.922 14.7684 119.967 14.7718C120.001 14.7751 120.034 14.8067 120.037 14.8401C120.039 14.8834 120.044 14.9284 120.044 14.9734C120.044 15.5866 120.044 16.1998 120.042 16.8131C120.042 16.8664 120.039 16.9197 120.031 16.973C120.029 16.9864 120.009 17.0014 119.996 17.0097C119.981 17.018 119.961 17.0197 119.942 17.0197C119.872 17.023 119.801 17.023 119.729 17.023C118.618 17.023 117.506 17.0247 116.395 17.023C116.065 17.023 116.088 17.0513 116.088 16.7264C116.086 15.9349 116.085 15.1434 116.088 14.3535C116.09 14.0502 116.063 13.7486 116.035 13.447C116.018 13.2804 115.98 13.1154 115.935 12.9521C115.848 12.6455 115.651 12.4455 115.351 12.3439C115.276 12.3189 115.2 12.2922 115.121 12.2805C114.953 12.2572 114.785 12.2355 114.617 12.2305C114.35 12.2222 114.083 12.2272 113.817 12.2289C113.79 12.2289 113.763 12.2322 113.737 12.2339C113.695 12.2372 113.658 12.2772 113.657 12.3255C113.653 12.3605 113.652 12.3955 113.652 12.4322V14.5651C113.652 14.5918 113.653 14.6184 113.655 14.6451C113.658 14.7218 113.693 14.7568 113.772 14.7601C113.897 14.7618 114.022 14.7618 114.145 14.7634C114.243 14.7634 114.342 14.7634 114.438 14.7651C114.518 14.7684 114.547 14.8001 114.55 14.8817C114.552 14.9001 114.552 14.9167 114.552 14.9351V16.8564C114.552 16.8914 114.552 16.928 114.54 16.9614C114.533 16.9814 114.508 17.0097 114.488 17.0113C114.427 17.0213 114.365 17.023 114.303 17.023C113.982 17.0247 113.662 17.023 113.342 17.023H109.954C109.874 17.023 109.794 17.0247 109.714 17.023C109.587 17.0197 109.567 16.998 109.562 16.8614V14.995C109.562 14.9417 109.567 14.8884 109.572 14.8351C109.576 14.8051 109.611 14.7718 109.646 14.7701C109.716 14.7668 109.787 14.7634 109.859 14.7634C110.072 14.7618 110.286 14.7634 110.499 14.7618C110.542 14.7618 110.589 14.7601 110.631 14.7484C110.652 14.7434 110.674 14.7184 110.684 14.6984C110.696 14.6751 110.696 14.6468 110.697 14.6201C110.699 14.5485 110.697 14.4768 110.697 14.4068V8.35125C110.697 8.26126 110.696 8.17295 110.692 8.08463C110.691 8.03964 110.652 8.00298 110.606 8.00131C110.374 7.99964 110.142 7.99964 109.912 7.99798C109.822 7.99798 109.734 7.99465 109.646 7.99131C109.612 7.99131 109.577 7.95632 109.574 7.92466C109.569 7.88133 109.562 7.83634 109.562 7.79301V5.92502C109.562 5.89003 109.566 5.85337 109.567 5.81837C109.572 5.77338 109.611 5.73339 109.652 5.73005C109.669 5.72839 109.687 5.72506 109.706 5.72506C109.749 5.72339 109.794 5.72339 109.839 5.72339H116.481C116.775 5.72339 117.068 5.75172 117.354 5.81837C118.423 6.06666 119.184 6.89484 119.406 7.84634C119.516 8.32125 119.536 8.79783 119.446 9.27608C119.346 9.81098 119.091 10.2576 118.666 10.6025C118.423 10.8008 118.151 10.9524 117.868 11.0824C117.811 11.1074 117.748 11.1207 117.706 11.1857Z" fill="#293E80"/>
<path d="M103 11.2302H103.878C103.931 11.2286 103.985 11.2202 104.036 11.2152C104.056 11.2119 104.081 11.1736 104.075 11.1536C104.055 11.0769 104.035 10.9986 104.011 10.9236C103.876 10.482 103.74 10.0421 103.605 9.60053C103.427 9.02564 103.25 8.44907 103.072 7.87251C103.063 7.84918 103.048 7.82585 103.035 7.80419C103.03 7.79753 103.018 7.79586 103.012 7.79586C103.003 7.79419 102.992 7.79586 102.99 7.80086C102.967 7.85751 102.943 7.91584 102.925 7.97416C102.622 8.97565 102.32 9.97713 102.018 10.9786C102 11.0386 101.988 11.0986 101.973 11.1586C101.97 11.1786 101.997 11.2169 102.015 11.2186C102.068 11.2236 102.122 11.2302 102.175 11.2302H103ZM100.124 8.03082C100.067 7.99082 100.012 7.99916 99.9605 7.99916C99.7306 7.99749 99.4989 7.99916 99.2673 7.99749C99.214 7.99749 99.1623 7.99249 99.109 7.98916C99.0773 7.98582 99.0607 7.96083 99.054 7.9375C99.044 7.89417 99.0407 7.84918 99.0407 7.80586C99.039 7.1743 99.039 6.54275 99.0407 5.9112C99.0407 5.87621 99.0457 5.84121 99.049 5.80622C99.0524 5.77456 99.0873 5.73623 99.1157 5.7329C99.1423 5.72957 99.169 5.72457 99.1957 5.72457C99.2756 5.7229 99.3556 5.7229 99.4356 5.7229H106.609C106.708 5.7229 106.806 5.72457 106.903 5.7279C106.958 5.72957 106.998 5.77456 107.001 5.83455C107.003 5.88787 107.004 5.94119 107.004 5.99452V7.72754C107.004 7.78919 106.999 7.85252 106.996 7.91417C106.993 7.95583 106.953 7.99416 106.906 7.99416C106.836 7.99749 106.764 7.99749 106.693 7.99749C106.489 7.99916 106.284 7.99749 106.079 7.99916C106.036 7.99916 105.993 8.00582 105.954 8.01082C105.924 8.08414 105.951 8.14246 105.969 8.20079C106.079 8.55739 106.189 8.91232 106.299 9.26893C106.823 10.9753 107.348 12.6816 107.871 14.388C107.889 14.4463 107.907 14.5063 107.926 14.5663C107.987 14.7596 107.987 14.7613 108.181 14.7629H108.767C108.802 14.7629 108.837 14.7679 108.874 14.7696C108.907 14.7729 108.942 14.8046 108.946 14.8363C108.949 14.8796 108.954 14.9246 108.954 14.9679V16.8092C108.954 16.8442 108.954 16.8792 108.951 16.9159C108.947 16.9909 108.916 17.0192 108.831 17.0225C108.769 17.0242 108.706 17.0242 108.644 17.0242H104.323C104.253 17.0242 104.181 17.0225 104.11 17.0192C104.05 17.0175 104.018 16.9825 104.015 16.9159C104.011 16.8626 104.011 16.8092 104.011 16.7559C104.01 16.1777 104.01 15.5994 104.011 15.0229C104.011 14.9596 104.016 14.8979 104.021 14.8363C104.023 14.8063 104.06 14.7729 104.093 14.7713C104.155 14.7679 104.216 14.7629 104.28 14.7629C104.456 14.7613 104.635 14.7629 104.813 14.7613C104.856 14.7613 104.901 14.7546 104.945 14.7496C104.965 14.7479 104.988 14.7096 104.983 14.6879C104.97 14.6363 104.956 14.5846 104.941 14.5346C104.835 14.168 104.726 13.8014 104.616 13.4365C104.598 13.3782 104.57 13.3215 104.546 13.2649C104.505 13.2599 104.47 13.2515 104.435 13.2515C103.483 13.2515 102.532 13.2515 101.582 13.2532C101.555 13.2532 101.529 13.2632 101.494 13.2699C101.472 13.3232 101.445 13.3782 101.429 13.4382C101.32 13.8214 101.214 14.208 101.109 14.593C101.104 14.6096 101.1 14.628 101.097 14.6446C101.084 14.7079 101.114 14.7546 101.172 14.7579C101.242 14.7613 101.314 14.7629 101.385 14.7629H101.865C101.9 14.7629 101.935 14.7679 101.972 14.7713C102.003 14.7746 102.042 14.8096 102.043 14.8379C102.047 14.8646 102.05 14.8912 102.05 14.9179V16.8909C102.05 16.9175 102.047 16.9442 102.038 16.9692C102.033 16.9842 102.018 16.9992 102.003 17.0075C101.988 17.0159 101.97 17.0192 101.952 17.0209C101.89 17.0225 101.829 17.0242 101.765 17.0242C100.307 17.0242 98.8491 17.0242 97.391 17.0225C97.321 17.0225 97.2493 17.0209 97.1794 17.0175C97.1427 17.0159 97.1094 16.9842 97.106 16.9525C97.1027 16.9175 97.0994 16.8809 97.0994 16.8459C97.0977 16.206 97.0994 15.5661 97.0994 14.9262C97.0994 14.8996 97.1027 14.8729 97.1044 14.8463C97.106 14.8129 97.1377 14.7763 97.1694 14.7729C97.2393 14.7696 97.311 14.7646 97.381 14.7629C97.5776 14.7613 97.7726 14.7613 97.9692 14.7596C98.0175 14.7596 98.0542 14.7363 98.0709 14.6913C98.0909 14.6413 98.1075 14.5896 98.1225 14.5396C98.5274 13.2332 98.9324 11.9268 99.3373 10.622C99.5789 9.84049 99.8205 9.06063 100.062 8.28077C100.087 8.19745 100.119 8.11413 100.124 8.03082Z" fill="#293E80"/>
<path d="M60.9463 7.77059C60.8879 7.80392 60.8763 7.85724 60.8613 7.90723C60.5463 8.95204 60.2314 9.99685 59.9165 11.0433C59.9065 11.0767 59.9015 11.1117 59.8931 11.1466C59.8881 11.175 59.9231 11.22 59.9531 11.2216C60.0148 11.225 60.0764 11.23 60.1397 11.23C60.6813 11.2316 61.2229 11.2316 61.7661 11.23C61.8178 11.23 61.8711 11.2266 61.9244 11.2233C61.9611 11.2216 61.9944 11.185 61.9877 11.1533C61.9728 11.0933 61.9594 11.0333 61.9411 10.9733C61.6328 9.97353 61.3262 8.97204 61.0179 7.97055C60.9963 7.9039 60.9713 7.83891 60.9463 7.77059ZM60.9296 5.72429H64.5306C64.6106 5.72429 64.6906 5.72263 64.7706 5.72596C64.8856 5.72763 64.9122 5.75262 64.9122 5.86927C64.9139 6.17088 64.9139 6.47249 64.9139 6.77577C64.9139 7.11404 64.9139 7.45065 64.9122 7.78892C64.9122 7.84224 64.9056 7.89557 64.8989 7.94723C64.8956 7.96222 64.8772 7.98055 64.8639 7.98388C64.8206 7.99222 64.7756 7.99722 64.7323 7.99722C64.4923 7.99888 64.2507 7.99722 64.0107 7.99888C63.9674 7.99888 63.9241 8.00555 63.8807 8.01555C63.8691 8.01721 63.8541 8.04054 63.8557 8.05387C63.8607 8.0972 63.8707 8.14052 63.8841 8.18218C64.0324 8.67376 64.1824 9.167 64.334 9.66025C64.8256 11.2633 65.3205 12.868 65.8137 14.4727C65.8371 14.5477 65.8604 14.6244 65.8887 14.6993C65.902 14.7327 65.9337 14.756 65.972 14.756C66.062 14.7593 66.1503 14.7627 66.2386 14.7627C66.3986 14.7643 66.5586 14.7627 66.7186 14.7643C66.7452 14.7643 66.7719 14.7677 66.7985 14.771C66.8302 14.7743 66.8685 14.8093 66.8702 14.8393C66.8735 14.8743 66.8769 14.9093 66.8769 14.9443C66.8785 15.5758 66.8785 16.2074 66.8769 16.839C66.8769 16.8823 66.8735 16.9273 66.8652 16.9706C66.8619 16.9856 66.8435 16.9989 66.8285 17.0073C66.8135 17.0156 66.7952 17.0206 66.7785 17.0206C66.7152 17.0223 66.6536 17.0239 66.5919 17.0239H62.216C62.1461 17.0239 62.0744 17.0206 62.0044 17.0173C61.9694 17.0156 61.9344 16.9823 61.9328 16.9506C61.9294 16.9156 61.9261 16.8806 61.9261 16.8456C61.9244 16.2141 61.9244 15.5825 61.9261 14.951C61.9261 14.9076 61.9294 14.8626 61.9378 14.8193C61.9394 14.8043 61.9578 14.786 61.9728 14.7827C62.0061 14.7727 62.0411 14.7643 62.0761 14.7643C62.2544 14.7627 62.4327 14.7643 62.6093 14.7627C62.681 14.7627 62.7526 14.761 62.8226 14.7577C62.8693 14.7543 62.8993 14.7093 62.8893 14.661C62.8843 14.636 62.8809 14.6094 62.8743 14.5827C62.7543 14.1828 62.6343 13.7828 62.5143 13.3829C62.5077 13.3579 62.501 13.3313 62.486 13.3096C62.4727 13.2896 62.4493 13.2663 62.4277 13.2613C62.376 13.2513 62.321 13.2513 62.2677 13.2513C62.0111 13.2496 61.7528 13.2496 61.4945 13.2496H59.7082C59.6282 13.2496 59.5482 13.2529 59.4682 13.2563C59.4299 13.2579 59.3999 13.2829 59.3866 13.3163C59.3682 13.3562 59.3582 13.3996 59.3466 13.4429C59.2399 13.8278 59.1333 14.2128 59.0266 14.5977C59.02 14.6244 59.0116 14.6493 59.0066 14.6743C58.9983 14.7093 59.0233 14.7527 59.0566 14.7543C59.1183 14.7577 59.1799 14.7627 59.2416 14.7627C59.4282 14.7643 59.6148 14.7627 59.8015 14.7643C59.8281 14.7643 59.8548 14.7693 59.8815 14.771C59.9148 14.7743 59.9498 14.806 59.9515 14.8376C59.9548 14.8826 59.9598 14.926 59.9598 14.971V16.8106C59.9598 16.8556 59.9564 16.9006 59.9531 16.9439C59.9498 16.9789 59.9198 17.0139 59.8881 17.0156C59.8348 17.0189 59.7815 17.0239 59.7282 17.0239H55.2473C55.024 17.0239 55.0173 17.0189 55.0173 16.8073C55.0157 16.2024 55.0173 15.5975 55.0173 14.9926C55.0173 14.9576 55.019 14.9226 55.0207 14.886C55.024 14.7943 55.054 14.7677 55.1557 14.7643C55.199 14.7627 55.244 14.7627 55.289 14.7627H55.7689C55.8039 14.7627 55.8405 14.7627 55.8755 14.761C55.9338 14.7577 55.9772 14.7343 55.9972 14.676C56.0138 14.626 56.0322 14.576 56.0472 14.5244C56.6954 12.4297 57.3419 10.3335 57.9885 8.23717C58.0051 8.18718 58.0185 8.13552 58.0301 8.08387C58.0385 8.04721 58.0118 8.00721 57.9801 8.00555C57.9185 8.00221 57.8568 7.99888 57.7935 7.99888C57.5802 7.99888 57.3669 7.99888 57.1536 7.99722C57.1103 7.99722 57.0636 7.99722 57.022 7.98722C57.002 7.98055 56.9803 7.95556 56.972 7.93389C56.9603 7.91057 56.9603 7.88057 56.9603 7.85558V5.88093C56.9603 5.84594 56.967 5.81094 56.9753 5.77762C56.9803 5.76262 56.997 5.74762 57.012 5.74096C57.0353 5.73263 57.0636 5.72763 57.0886 5.72596C57.1686 5.72429 57.2486 5.72429 57.3286 5.72429H60.9296Z" fill="#293E80"/>
<path d="M51.3821 14.7508C51.4388 14.7042 51.4538 14.6442 51.4721 14.5842C51.6121 14.1343 51.7537 13.686 51.8937 13.2361C51.9537 13.0511 52.0104 12.8628 52.0703 12.6779C52.097 12.5912 52.132 12.5696 52.2286 12.5662C52.2636 12.5646 52.2986 12.5646 52.3353 12.5646H53.8284C53.89 12.5646 53.9533 12.5696 54.015 12.5779C54.0383 12.5812 54.065 12.5996 54.0666 12.6312C54.07 12.7112 54.075 12.7895 54.075 12.8695C54.0766 13.5627 54.0766 14.2576 54.0766 14.9508V16.7105C54.075 16.7905 54.0716 16.8704 54.0683 16.9504C54.0666 16.9821 54.0317 17.0138 53.9967 17.0171C53.97 17.0188 53.9433 17.0221 53.9167 17.0221C53.855 17.0238 53.7934 17.0238 53.73 17.0238H44.2867C44.2068 17.0238 44.1268 17.0238 44.0468 17.0204C43.9818 17.0188 43.9451 16.9854 43.9418 16.9271C43.9401 16.9004 43.9401 16.8738 43.9401 16.8471C43.9385 16.2072 43.9401 15.5673 43.9401 14.9275C43.9401 14.9091 43.9401 14.8908 43.9418 14.8741C43.9435 14.8008 43.9785 14.7675 44.0601 14.7658C44.1318 14.7625 44.2034 14.7625 44.2734 14.7625H44.8333C44.8866 14.7625 44.94 14.7592 44.9933 14.7558C45.0366 14.7525 45.0716 14.7125 45.0749 14.6658C45.0783 14.6392 45.0799 14.6125 45.0799 14.5859V8.34366C45.0799 8.25534 45.0766 8.16535 45.0733 8.07704C45.0716 8.04204 45.0399 8.00705 45.0083 8.00538C44.955 8.00205 44.9016 7.99872 44.8483 7.99872C44.635 7.99705 44.4217 7.99872 44.2084 7.99872C44.1534 7.99872 44.1001 7.99705 44.0468 7.99539C43.9835 7.99372 43.9451 7.95873 43.9418 7.90207C43.9401 7.86708 43.9385 7.83042 43.9385 7.79542C43.9385 7.1722 43.9385 6.55065 43.9401 5.92743C43.9401 5.8841 43.9451 5.83911 43.9485 5.79578C43.9501 5.76579 43.9868 5.73413 44.0218 5.73079C44.0485 5.72746 44.0751 5.72413 44.1018 5.72413C44.1718 5.72246 44.2434 5.72413 44.3151 5.72413H53.705C53.8017 5.72413 53.9 5.72913 53.9983 5.73246C54.0317 5.73413 54.0666 5.76912 54.0683 5.80078C54.0716 5.84411 54.075 5.8891 54.075 5.93242C54.0766 7.15054 54.0766 8.36865 54.0766 9.58676C54.0766 9.63176 54.0733 9.67675 54.0716 9.72007C54.0683 9.76673 54.0317 9.80006 53.9833 9.80339C53.93 9.80506 53.8767 9.80672 53.8234 9.80672C53.3251 9.80839 52.8269 9.80839 52.3303 9.80672C52.277 9.80672 52.2236 9.80672 52.1703 9.80339C52.1303 9.80006 52.1037 9.77506 52.0887 9.74174C52.057 9.67008 52.027 9.5951 51.9987 9.52011C51.837 9.09685 51.6771 8.6736 51.5154 8.25034C51.4971 8.20035 51.4771 8.15202 51.4571 8.10203C51.4338 8.03704 51.3921 7.99872 51.3205 7.99872C51.2488 8.00038 51.1772 7.99872 51.1072 7.99872H49.2925C48.9459 7.99872 48.5993 7.99705 48.2527 7.99872C48.1994 7.99872 48.146 8.00372 48.0927 8.01205C48.0794 8.01372 48.0661 8.03371 48.0577 8.04871C48.0511 8.06537 48.0494 8.0837 48.0494 8.10203C48.0477 8.63527 48.0477 9.16851 48.0477 9.70174C48.0477 9.71008 48.0494 9.72007 48.0494 9.72841C48.0527 9.78006 48.0827 9.81339 48.1294 9.81506C48.2094 9.81839 48.2894 9.82172 48.3693 9.82172H49.9441C50.014 9.82172 50.0857 9.82172 50.1574 9.82339C50.2307 9.82672 50.264 9.86171 50.2673 9.94337C50.269 9.97836 50.2707 10.0134 50.2707 10.05V12.103C50.2707 12.1563 50.2657 12.2096 50.2623 12.2629C50.2607 12.2896 50.2173 12.3313 50.1923 12.3346C50.1657 12.3379 50.139 12.3413 50.1124 12.3413C50.0407 12.3429 49.9707 12.3429 49.8991 12.3429H48.2977C48.0344 12.3429 48.0461 12.3479 48.0461 12.5912V14.5642C48.0477 14.7392 48.0511 14.7625 48.241 14.7625H51.1222C51.2105 14.7625 51.3005 14.7692 51.3821 14.7508Z" fill="#293E80"/>
<path d="M33.8486 5.69653V9.35421H35.4417L35.735 8.10277H36.8914V14.6449H35.74V17.0511H41.254V14.6449H40.0242V8.10277H41.174L41.4806 9.35421H43.0586V5.69653H33.8486Z" fill="#293E80"/>
<path d="M120.452 5.69653V9.35421H122.045L122.338 8.10277H123.495V14.6449H122.343V17.0511H127.857V14.6449H126.628V8.10277H127.777L128.084 9.35421H129.662V5.69653H120.452Z" fill="#243671"/>
<path d="M7.11431 11.4493C7.12037 15.1955 10.1576 18.2251 13.9038 18.219C17.6473 18.2329 20.6769 15.1957 20.6708 11.4495C20.6648 7.70326 17.6303 4.65367 13.8841 4.65972C10.1379 4.66578 7.10826 7.70306 7.11431 11.4493ZM10.6424 10.0897L10.646 7.58646L17.0152 7.60068L17.0144 10.0839L15.9455 10.1585L15.752 9.35801L14.8995 9.34073L14.8929 13.6144L15.7199 13.6688L15.7592 15.2824L12.0357 15.2713L11.9565 13.6521L12.692 13.6327L12.7014 9.33908L12.0485 9.34968L11.7745 10.146L10.6424 10.0897Z" fill="#F26A24"/>
<path d="M22.8268 1.12539L18.8894 4.76516C18.8207 4.83383 18.8207 4.9254 18.8894 4.97118C19.599 5.54347 20.24 6.20732 20.7207 6.96275C20.7665 7.05431 20.881 7.05431 20.9496 7.00853L22.3689 5.68082C22.4376 5.61214 22.5521 5.63503 22.5978 5.7266C23.3075 7.1001 23.6966 8.63383 23.6966 10.2362C23.6966 13.9447 21.6593 17.264 18.34 18.9122C18.2713 18.9579 18.2484 19.0495 18.2942 19.1182L19.4846 21.5905C19.5304 21.6591 19.6219 21.682 19.6906 21.6591C21.7508 20.629 23.4906 19.0495 24.7268 17.1037C26.0316 15.0435 26.7412 12.6856 26.7412 10.2362C26.7412 7.37479 25.7569 4.53624 23.9484 2.29287L23.0328 1.14828C23.0099 1.1025 22.9641 1.07961 22.9183 1.07961C22.8954 1.07961 22.8496 1.1025 22.8268 1.12539Z" fill="url(#paint0_linear_1493_719)"/>
<path d="M4.71907 1.14828L3.80341 2.29287C1.99497 4.53624 1.01064 7.37479 1.01064 10.2362C1.01064 12.6856 1.72027 15.0435 3.02509 17.1037C4.26124 19.0495 6.001 20.629 8.06124 21.6591C8.12991 21.682 8.22148 21.6591 8.26726 21.5905L9.45763 19.1182C9.50341 19.0495 9.48052 18.9579 9.41184 18.9122C6.09256 17.264 4.05521 13.9447 4.05521 10.2362C4.05521 8.63383 4.44437 7.1001 5.1769 5.7266C5.19979 5.63503 5.31425 5.61214 5.38293 5.68082L6.8022 7.00853C6.87088 7.05431 6.98534 7.05431 7.03112 6.96275C7.51184 6.20732 8.15281 5.54347 8.86245 4.97118C8.93112 4.9254 8.93112 4.83383 8.86245 4.76516L4.92509 1.12539C4.9022 1.1025 4.85642 1.07961 4.83353 1.07961C4.78774 1.07961 4.74196 1.1025 4.71907 1.14828Z" fill="url(#paint1_linear_1493_719)"/>
<defs>
<linearGradient id="paint0_linear_1493_719" x1="22.5032" y1="21.6134" x2="22.5032" y2="-1.27822" gradientUnits="userSpaceOnUse">
<stop stop-color="#2E4892"/>
<stop offset="0.08" stop-color="#2E4892"/>
<stop offset="0.83" stop-color="#243672"/>
<stop offset="1" stop-color="#243672"/>
</linearGradient>
<linearGradient id="paint1_linear_1493_719" x1="5.24873" y1="21.6134" x2="5.24873" y2="-1.27822" gradientUnits="userSpaceOnUse">
<stop stop-color="#2E4892"/>
<stop offset="0.08" stop-color="#2E4892"/>
<stop offset="0.83" stop-color="#243672"/>
<stop offset="1" stop-color="#243672"/>
</linearGradient>
</defs>
</svg>
